<?xml version="1.0" encoding="UTF-8"?>
<svg width="47px" height="45px" viewBox="0 0 47 45" version="1.1" xmlns="http://www.w3.org/2000/svg" xmlns:xlink="http://www.w3.org/1999/xlink">
    <!-- Generator: Sketch 52.6 (67491) - http://www.bohemiancoding.com/sketch -->
    <title>github</title>
    <desc>Created with Sketch.</desc>
    <g id="Page-1" stroke="none" stroke-width="1" fill="none" fill-rule="evenodd">
        <g id="github" fill="#ffffff">
            <path d="M43.8476329,11.4870212 C41.7461977,7.95323279 38.895735,5.15552759 35.2954947,3.09327448 C31.6947185,1.03091619 27.7637443,0 23.4997857,0 C19.2363629,0 15.3041026,1.03123174 11.7040767,3.09327448 C8.1035148,5.1554224 5.2531593,7.95323279 3.15172411,11.4870212 C1.05061043,15.0207044 0,18.8795138 0,23.0633443 C0,28.0890738 1.49398239,32.6083386 4.48269737,36.6222956 C7.47109083,40.6365681 11.3316528,43.4142882 16.0640617,44.9557714 C16.6149275,45.0561177 17.0227183,44.9855387 17.2878626,44.7458226 C17.5531142,44.5057909 17.6855792,44.2051727 17.6855792,43.8452303 C17.6855792,43.7851698 17.6803277,43.2448355 17.6701463,42.2235963 C17.6596435,41.2023572 17.6547135,40.3114419 17.6547135,39.5512714 L16.9509128,39.6707613 C16.5021822,39.7514381 15.9360979,39.7856231 15.2526599,39.7759461 C14.5695434,39.7665847 13.8603841,39.6963213 13.1261464,39.5656817 C12.3915872,39.4361993 11.7083635,39.1358967 11.0759396,38.6654051 C10.4438371,38.1949135 9.99510656,37.5790565 9.72985502,36.8187808 L9.423878,36.1277167 C9.21992904,35.6676384 8.89884071,35.1565455 8.46018434,34.5963312 C8.02152796,34.0355911 7.57794165,33.6554532 7.12921107,33.4552866 L6.91497357,33.3047671 C6.77222002,33.2047364 6.63975501,33.0840894 6.51725703,32.9440885 C6.39486622,32.8040875 6.30323387,32.6639814 6.24203846,32.5236648 C6.18073589,32.3832431 6.23153557,32.2680658 6.39497339,32.177712 C6.5584112,32.0873583 6.85377817,32.0434962 7.28236035,32.0434962 L7.89410005,32.1332189 C8.30210514,32.2134749 8.80677968,32.453191 9.4087667,32.8538399 C10.0104322,33.2541732 10.5050325,33.7746276 10.8926749,34.4149927 C11.3620897,35.2360652 11.9276381,35.8617043 12.5909277,36.2922257 C13.2536815,36.7227471 13.921901,36.9376396 14.5949433,36.9376396 C15.2679856,36.9376396 15.8492883,36.8875716 16.3390659,36.7879616 C16.8283076,36.6878257 17.2873268,36.5373063 17.7159089,36.3372448 C17.8994951,34.9952972 18.3993469,33.964381 19.2150356,33.2437599 C18.0524301,33.1238493 17.0071783,32.943247 16.0787443,32.7031101 C15.1508462,32.4626577 14.1919753,32.0724221 13.2027746,31.5313515 C12.2130381,30.9910172 11.3919908,30.3200434 10.7394184,29.5195871 C10.0867389,28.71871 9.55109156,27.6672828 9.13322662,26.3662521 C8.71514733,25.0646954 8.5060541,23.5632876 8.5060541,21.861608 C8.5060541,19.4386762 9.31199008,17.3768438 10.9235405,15.6749538 C10.1686186,13.8533636 10.2398882,11.8113059 11.1375637,9.54899133 C11.729155,9.36859941 12.6064677,9.50397224 13.7690733,9.95426835 C14.9318931,10.4047748 15.7832702,10.7906978 16.3240618,11.11067 C16.8648534,11.430537 17.2981512,11.7015982 17.6245981,11.9214344 C19.5220843,11.4010852 21.4802301,11.140858 23.4995713,11.140858 C25.5189125,11.140858 27.477487,11.4010852 29.3750804,11.9214344 L30.5377931,11.2010237 C31.3329046,10.7203292 32.2718415,10.2798153 33.352353,9.87937678 C34.4335075,9.47914863 35.260235,9.36891496 35.8316779,9.54930689 C36.7492874,11.8117267 36.8310599,13.8536791 36.0759236,15.6752694 C37.6873669,17.3771594 38.4936244,19.4395177 38.4936244,21.8619235 C38.4936244,23.5636032 38.2837809,25.0697443 37.8663447,26.3812935 C37.4483726,27.6930531 36.9081168,28.7434285 36.2453631,29.5346285 C35.5818591,30.3257233 34.7555604,30.9914379 33.7663597,31.531667 C32.7769447,32.0723169 31.8177523,32.4625525 30.8898542,32.7030049 C29.9615274,32.9434574 28.9162756,33.1241648 27.7536701,33.2442859 C28.8140332,34.1448781 29.3443219,35.5664506 29.3443219,37.5083723 L29.3443219,43.8443889 C29.3443219,44.2043312 29.471857,44.5048442 29.7271415,44.7449811 C29.9821045,44.9846972 30.384751,45.0552762 30.9356168,44.9548248 C35.6686687,43.4135519 39.5292307,40.6357267 42.517517,36.6214541 C45.5054818,32.6074971 47,28.0882324 47,23.0625028 C46.9989283,18.8791983 45.947782,15.0207044 43.8476329,11.4870212 Z" id="Path"></path>
        </g>
    </g>
</svg>