<?xml version="1.0" encoding="UTF-8"?>
<svg width="36px" height="45px" viewBox="0 0 36 45" version="1.1" xmlns="http://www.w3.org/2000/svg" xmlns:xlink="http://www.w3.org/1999/xlink">
    <!-- Generator: Sketch 52.6 (67491) - http://www.bohemiancoding.com/sketch -->
    <title>noun_Resume_1550414</title>
    <desc>Created with Sketch.</desc>
    <g id="Page-1" stroke="none" stroke-width="1" fill="none" fill-rule="evenodd">
        <g id="noun_Resume_1550414" fill="#ffffff">
            <g id="Group">
                <path d="M18,14.85 C20.2367532,14.85 22.05,13.0367532 22.05,10.8 C22.05,8.56324676 20.2367532,6.75 18,6.75 C15.7632468,6.75 13.95,8.56324676 13.95,10.8 C13.95,13.0367532 15.7632468,14.85 18,14.85 Z" id="Path"></path>
                <path d="M11.41875,22.95 L24.58125,22.95 C24.7055608,22.9694951 24.8317024,22.9284032 24.9206778,22.8394278 C25.0096532,22.7504524 25.0507451,22.6243108 25.03125,22.5 L25.03125,22.21875 C25.0464158,20.5582017 24.3934652,18.9612527 23.2192312,17.7870188 C22.0449973,16.6127848 20.4480483,15.9598342 18.7875,15.975 L17.2125,15.975 C15.5519517,15.9598342 13.9550027,16.6127848 12.7807688,17.7870188 C11.6065348,18.9612527 10.9535842,20.5582017 10.96875,22.21875 L10.96875,22.5 C10.9492549,22.6243108 10.9903468,22.7504524 11.0793222,22.8394278 C11.1682976,22.9284032 11.2944392,22.9694951 11.41875,22.95 Z" id="Path"></path>
                <path d="M29.475,0.16875 L6.525,0.16875 C3.12046666,0.199285768 0.368035768,2.95171666 0.3375,6.35625 L0.3375,38.64375 C0.368035768,42.0482833 3.12046666,44.8007142 6.525,44.83125 L29.475,44.83125 C32.8795333,44.8007142 35.6319642,42.0482833 35.6625,38.64375 L35.6625,6.35625 C35.6319642,2.95171666 32.8795333,0.199285768 29.475,0.16875 Z M32.2875,38.64375 C32.2575744,40.184485 31.015735,41.4263244 29.475,41.45625 L6.525,41.45625 C4.98426495,41.4263244 3.74242559,40.184485 3.7125,38.64375 L3.7125,6.35625 C3.74242559,4.81551495 4.98426495,3.57367559 6.525,3.54375 L29.475,3.54375 C31.015735,3.57367559 32.2575744,4.81551495 32.2875,6.35625 L32.2875,38.64375 Z" id="Shape" fill-rule="nonzero"></path>
                <path d="M26.775,27.39375 L9.7875,27.39375 C9.33526497,27.3778673 8.89675257,27.5505513 8.57677696,27.870527 C8.25680135,28.1905026 8.08411725,28.629015 8.1,29.08125 C8.1,30.0132305 8.85551948,30.76875 9.7875,30.76875 L26.775,30.76875 C27.7069805,30.76875 28.4625,30.0132305 28.4625,29.08125 C28.4783827,28.629015 28.3056987,28.1905026 27.985723,27.870527 C27.6657474,27.5505513 27.227235,27.3778673 26.775,27.39375 Z" id="Path"></path>
                <path d="M26.775,34.14375 L9.7875,34.14375 C9.33526497,34.1278673 8.89675257,34.3005513 8.57677696,34.620527 C8.25680135,34.9405026 8.08411725,35.379015 8.1,35.83125 C8.1,36.7632305 8.85551948,37.51875 9.7875,37.51875 L26.775,37.51875 C27.7069805,37.51875 28.4625,36.7632305 28.4625,35.83125 C28.4783827,35.379015 28.3056987,34.9405026 27.985723,34.620527 C27.6657474,34.3005513 27.227235,34.1278673 26.775,34.14375 Z" id="Path"></path>
            </g>
        </g>
    </g>
</svg>